<mxfile host="app.diagrams.net" modified="2023-07-04T07:17:28.658Z" agent="Mozilla/5.0 (Windows NT 10.0; Win64; x64; rv:109.0) Gecko/20100101 Firefox/114.0" etag="CZ8SHaWmY5ZJoE9VYyq-" version="21.5.2" type="github">
  <diagram name="Page-1" id="fmpCCq2pBGN0tdPbxeEe">
    <mxGraphModel dx="1434" dy="782" grid="1" gridSize="10" guides="1" tooltips="1" connect="1" arrows="1" fold="1" page="1" pageScale="1" pageWidth="850" pageHeight="1100" math="0" shadow="0">
      <root>
        <mxCell id="0" />
        <mxCell id="1" parent="0" />
        <mxCell id="CFI02Dv2PSNbTkpkaAY6-1" value="" style="rounded=0;whiteSpace=wrap;html=1;fillColor=none;" vertex="1" parent="1">
          <mxGeometry x="105" y="170" width="640" height="400" as="geometry" />
        </mxCell>
        <mxCell id="CFI02Dv2PSNbTkpkaAY6-2" value="" style="rounded=1;whiteSpace=wrap;html=1;" vertex="1" parent="1">
          <mxGeometry x="440" y="290" width="120" height="20" as="geometry" />
        </mxCell>
        <mxCell id="CFI02Dv2PSNbTkpkaAY6-3" value="" style="rounded=1;whiteSpace=wrap;html=1;align=left;" vertex="1" parent="1">
          <mxGeometry x="440" y="320" width="120" height="20" as="geometry" />
        </mxCell>
        <mxCell id="CFI02Dv2PSNbTkpkaAY6-4" value="" style="rounded=1;whiteSpace=wrap;html=1;align=left;" vertex="1" parent="1">
          <mxGeometry x="440" y="350" width="120" height="20" as="geometry" />
        </mxCell>
        <mxCell id="CFI02Dv2PSNbTkpkaAY6-5" value="Add new item" style="rounded=0;whiteSpace=wrap;html=1;fillColor=none;strokeColor=none;fontSize=20;align=left;" vertex="1" parent="1">
          <mxGeometry x="160" y="210" width="190" height="60" as="geometry" />
        </mxCell>
        <mxCell id="CFI02Dv2PSNbTkpkaAY6-6" value="" style="rounded=1;whiteSpace=wrap;html=1;fillColor=none;" vertex="1" parent="1">
          <mxGeometry x="290" y="320" width="120" height="20" as="geometry" />
        </mxCell>
        <mxCell id="CFI02Dv2PSNbTkpkaAY6-7" value="Starting bid" style="rounded=1;whiteSpace=wrap;html=1;fillColor=none;" vertex="1" parent="1">
          <mxGeometry x="290" y="350" width="120" height="20" as="geometry" />
        </mxCell>
        <mxCell id="CFI02Dv2PSNbTkpkaAY6-8" value="Item name" style="rounded=1;whiteSpace=wrap;html=1;fillColor=none;" vertex="1" parent="1">
          <mxGeometry x="290" y="290" width="120" height="20" as="geometry" />
        </mxCell>
        <mxCell id="CFI02Dv2PSNbTkpkaAY6-9" value="Description" style="rounded=1;whiteSpace=wrap;html=1;fillColor=none;" vertex="1" parent="1">
          <mxGeometry x="290" y="320" width="120" height="20" as="geometry" />
        </mxCell>
        <mxCell id="CFI02Dv2PSNbTkpkaAY6-10" value="" style="rounded=1;whiteSpace=wrap;html=1;align=left;" vertex="1" parent="1">
          <mxGeometry x="440" y="320" width="120" height="20" as="geometry" />
        </mxCell>
        <mxCell id="CFI02Dv2PSNbTkpkaAY6-11" value="" style="rounded=1;whiteSpace=wrap;html=1;align=left;" vertex="1" parent="1">
          <mxGeometry x="440" y="350" width="120" height="20" as="geometry" />
        </mxCell>
        <mxCell id="CFI02Dv2PSNbTkpkaAY6-12" value="" style="rounded=1;whiteSpace=wrap;html=1;align=left;" vertex="1" parent="1">
          <mxGeometry x="440" y="320" width="120" height="20" as="geometry" />
        </mxCell>
        <mxCell id="CFI02Dv2PSNbTkpkaAY6-14" value="" style="rounded=1;whiteSpace=wrap;html=1;fillColor=none;" vertex="1" parent="1">
          <mxGeometry x="290" y="380" width="120" height="20" as="geometry" />
        </mxCell>
        <mxCell id="CFI02Dv2PSNbTkpkaAY6-15" value="" style="rounded=1;whiteSpace=wrap;html=1;align=left;" vertex="1" parent="1">
          <mxGeometry x="440" y="380" width="120" height="20" as="geometry" />
        </mxCell>
        <mxCell id="CFI02Dv2PSNbTkpkaAY6-16" value="Add item" style="rounded=1;whiteSpace=wrap;html=1;fillColor=none;" vertex="1" parent="1">
          <mxGeometry x="500" y="500" width="60" height="20" as="geometry" />
        </mxCell>
      </root>
    </mxGraphModel>
  </diagram>
</mxfile>
